<?xml version="1.0" encoding="UTF-8"?>
<!DOCTYPE svg PUBLIC "-//W3C//DTD SVG 1.1//EN" "http://www.w3.org/Graphics/SVG/1.1/DTD/svg11.dtd">
<svg version="1.1" xmlns="http://www.w3.org/2000/svg" xmlns:xlink="http://www.w3.org/1999/xlink" x="0" y="0" width="200" height="200" viewBox="0, 0, 200, 200">
  <g id="Layer_1">
    <path d="M200,100 C200,155.228 155.228,200 100,200 C44.772,200 0,155.228 0,100 C0,44.772 44.772,0 100,0 C155.228,0 200,44.772 200,100 z" fill="#000000" fill-opacity="0.07"/>
    <path d="M92.513,26.783 C106.532,25.195 124.481,35.061 136.222,41.528 C147.963,47.996 157.914,53.415 162.959,65.588 C168.004,77.761 169.589,99.917 166.493,114.566 C163.398,129.216 154.883,144.58 144.388,153.487 C133.892,162.394 116.717,166.251 103.519,168.01 C90.321,169.768 77.056,170.334 65.2,164.037 C53.343,157.74 38.658,142.881 32.378,130.227 C26.099,117.573 24.232,101.308 27.52,88.113 C30.809,74.918 41.277,61.278 52.109,51.056 C62.942,40.834 78.494,28.371 92.513,26.783 C106.532,25.195 124.481,35.061 136.222,41.528" fill="#275AFF" id="kraken55096068708708940"/>
    <path d="M145,100 C145,124.853 124.853,145 100,145 C75.147,145 55,124.853 55,100 C55,75.147 75.147,55 100,55 C124.853,55 145,75.147 145,100 z" fill-opacity="0" stroke="#FFFFFF" stroke-width="4"/>
    <g>
      <path d="M85,85 L115,115" fill="#000000"/>
      <path d="M85,85 L115,115" fill-opacity="0" stroke="#FFFFFF" stroke-width="4"/>
    </g>
    <g>
      <path d="M115,85 L85,115" fill="#000000"/>
      <path d="M115,85 L85,115" fill-opacity="0" stroke="#FFFFFF" stroke-width="4"/>
    </g>
  </g>
</svg>
